<svg xmlns="http://www.w3.org/2000/svg" xmlns:xlink="http://www.w3.org/1999/xlink" width="75.903" height="61.899" viewBox="0 0 75.903 61.899">
  <defs>
    <clipPath id="clip-path">
      <rect id="Rectángulo_12" data-name="Rectángulo 12" width="75.903" height="61.899" fill="#f20a67"/>
    </clipPath>
  </defs>
  <g id="Grupo_56" data-name="Grupo 56" transform="translate(0 0)">
    <g id="Grupo_11" data-name="Grupo 11" transform="translate(0 0)" clip-path="url(#clip-path)">
      <path id="Trazado_19" data-name="Trazado 19" d="M0,54.567v-7H3.473A15.415,15.415,0,0,1,9.8,36.311a15.242,15.242,0,0,1,12.732-2.652v-1.65q0-13.891,0-27.782c0-3.545,2.152-4.979,5.459-3.7A1.42,1.42,0,0,0,29.03.421c1.375-.715,2.576-.193,3.956.135,1.157.274,2.5-1.093,3.9-.311.427.238,1,.458,1.187.841.625,1.272,1.659,1.3,2.842,1.246,1.383-.066,2.773-.047,4.158-.007a8,8,0,0,1,6.866,3.751,1.944,1.944,0,0,0,1.9,1.016c6.782-.037,13.566-.02,20.349-.02H75.9V9.341H53.359v2.471H75.894v2.306h-1.56c-6.833,0-13.666-.015-20.5.028a2.173,2.173,0,0,0-1.6.641,8.724,8.724,0,0,1-8.074,4.089c-.828-.022-1.659,0-2.565,0V16.587c1.056,0,2.119.014,3.182,0,3.771-.059,6.289-2.5,6.265-6.056C51.019,7.055,48.522,4.67,44.8,4.606,42.976,4.574,41.15,4.6,39.2,4.6V7h5.772v2.32h-5.8v2.482H45v2.269H39.158V30.7H36.8V29.159q0-12.406-.007-24.811a2.842,2.842,0,0,0-.189-1.432,1.609,1.609,0,0,0-1.2-.612,1.465,1.465,0,0,0-.959.74,2.5,2.5,0,0,0-.125,1.162q-.008,14.04,0,28.08c0,.386.055.77.093,1.255,6.7-1.052,12.127,1.028,16.322,6.436a10.773,10.773,0,0,1,16.479,5.836c.556,1.928.542,1.933,2.736,1.543.006-7.15-9.28-15.35-19.623-10.214l-.94-1.6c6.991-5.527,21.963-.867,23.075,11.988h3.4v6.936a4.934,4.934,0,0,1-1.26.09c-2.2-.408-3.709.56-5.113,2.158-1.531,1.743-3.023,3.921-5.014,4.748s-4.578.238-6.9.239c-14.8.005-29.609-.017-44.413.035a3.893,3.893,0,0,1-3.213-1.365c-1.359-1.5-2.928-2.821-4.262-4.348A3.767,3.767,0,0,0,2.08,54.552,16.168,16.168,0,0,1,0,54.567m7.839.052-.314.4c1.295,1.2,2.547,2.452,3.9,3.575a3.326,3.326,0,0,0,1.922.79q24.576.064,49.152.027c.433,0,1.013.048,1.274-.195,1.526-1.423,2.977-2.927,4.646-4.6Zm65.778-4.7H2.3V52.16H73.617ZM27.288,33.134V31.41q0-13.659,0-27.317c0-.893-.046-1.776-1.209-1.83-1.076-.051-1.281.724-1.281,1.6q0,14.846.019,29.692a1.49,1.49,0,0,0,.507,1.09c1.019.671,2.114,1.227,3.144,1.807a15.157,15.157,0,0,1,2.214-1.319,2,2,0,0,0,1.39-2.236c-.055-9.451-.031-18.9-.032-28.355,0-.3.11-.666-.026-.877a13.891,13.891,0,0,0-1.175-1.415,7.308,7.308,0,0,0-1.235,1.336c-.191.34-.048.87-.048,1.316q0,13.213,0,26.426v1.808ZM50.966,47.391A12.861,12.861,0,0,0,36.921,35.61c-6.5.451-12.177,6.069-11.9,11.769,2.146.312,2.146.312,2.708-1.641a10.331,10.331,0,0,1,10.278-7.633A10.287,10.287,0,0,1,48.128,45.74c.545,1.92.545,1.92,2.837,1.651m-42.675.07a10.433,10.433,0,0,1,6.283-8.445,10.353,10.353,0,0,1,10.587,1l1.5-1.884A13.1,13.1,0,0,0,5.8,47.461Zm21.43-.065c2.148.242,2.127.231,2.987-1.412a5.567,5.567,0,0,1,5.319-3.151,5.538,5.538,0,0,1,5.147,3.186c.87,1.706,1.055,1.8,2.966,1.256a8.086,8.086,0,0,0-8.3-6.949,8.063,8.063,0,0,0-8.118,7.07m35.55.035a8.211,8.211,0,0,0-5.4-6.616,8.128,8.128,0,0,0-8,1.194c.327.842.619,1.592.927,2.388,4-3.084,8.553-1.4,10.083,3.034Zm-54.682-.05c1.491.286,2.566.372,3.178-1.422a4.981,4.981,0,0,1,3.808-3,6.273,6.273,0,0,1,5.5,1.458l.928-2.4a7.94,7.94,0,0,0-7.85-1.224,8.191,8.191,0,0,0-5.567,6.595m11.626.045c-.793-1.738-1.85-2.445-3.488-2.346a3.268,3.268,0,0,0-3.162,2.346Zm18.957.018a3.164,3.164,0,0,0-3.462-2.37,2.988,2.988,0,0,0-2.976,2.447c1.741,0,3.443,0,5.145,0,.422,0,.846-.046,1.293-.074m19.082.025a3.3,3.3,0,0,0-3.715-2.374,3.258,3.258,0,0,0-2.928,2.374Z" transform="translate(0 0)" fill="#f20a67"/>
    </g>
  </g>
</svg>
