<svg id="Grupo_58" data-name="Grupo 58" xmlns="http://www.w3.org/2000/svg" xmlns:xlink="http://www.w3.org/1999/xlink" width="70.012" height="78.169" viewBox="0 0 70.012 78.169">
  <defs>
    <clipPath id="clip-path">
      <rect id="Rectángulo_14" data-name="Rectángulo 14" width="70.012" height="78.169" fill="#f20a67"/>
    </clipPath>
  </defs>
  <g id="Grupo_13" data-name="Grupo 13" clip-path="url(#clip-path)">
    <path id="Trazado_20" data-name="Trazado 20" d="M36.357,61.877V59.77q0-14.254,0-28.509c0-2.169.1-2.257,2.223-2.218,16.477.3,31.2,13.671,33.08,30.048,2.194,19.071-10.121,35.561-28.974,38.8C24.651,100.985,6.423,88.081,3.3,70.053a34.805,34.805,0,0,1,3.454-22.6c.969-1.864,1.086-1.887,2.875-.86q12.48,7.168,24.958,14.34c.473.272.962.516,1.767.946M15.594,77.344c1.281,1.766,2.521,3.36,3.63,5.04a7.933,7.933,0,0,0,3.967,3.14,29.433,29.433,0,0,1,5.2,2.453,9.421,9.421,0,0,0,6.2,1.5c1.309-.126,1.815-.441,1.8-1.873-.079-6.8-.035-13.6-.035-20.4v-1.83L15.594,77.344m45.212-1.285c.352-1.111.7-2.032.933-2.982.606-2.507,1.272-5.007,1.686-7.547a12.947,12.947,0,0,0-.1-4.175c-.388-2.288-.977-4.545-1.53-6.8-.263-1.075-.638-2.124-1-3.3L39.318,63.652,60.806,76.059M13.9,51.3c-.32.959-.663,1.783-.866,2.639-.571,2.408-.977,4.86-1.655,7.235a8.539,8.539,0,0,0,.039,5.056c.6,1.975.939,4.029,1.422,6.042.295,1.229.647,2.443,1.012,3.81L35.386,63.655,13.9,51.3M38.426,89.219c2.594.374,5.011.585,7.387-.929,1.82-1.159,3.929-1.855,5.851-2.868A10.14,10.14,0,0,0,54.739,83.3c1.56-1.84,2.863-3.9,4.348-5.973L38.426,65.412Zm.01-27.322L59.095,49.959c-1.316-1.827-2.551-3.434-3.666-5.12A7.924,7.924,0,0,0,51.561,41.8a31.931,31.931,0,0,1-5.6-2.694c-2.4-1.563-4.859-1.457-7.527-.985ZM61.01,78.446a21.336,21.336,0,0,0-2.751,3.291,11.9,11.9,0,0,1-7.977,6.294,2.88,2.88,0,0,0-.834.365c-3.346,2.087-6.691,4.167-10.99,2.665v5.1c10.3.2,22.048-6.753,26.477-15.443L61.01,78.446M38.43,35.957a7.9,7.9,0,0,0,1.407-.012,9.67,9.67,0,0,1,7.248,1.574,23.723,23.723,0,0,0,4.644,2.233,10.562,10.562,0,0,1,5.7,4.546c1,1.618,2.3,3.056,3.491,4.612l4.109-2.374C60.4,37.775,46.281,29.729,38.43,31.25ZM36.3,91.342a7.564,7.564,0,0,0-1.354.011,9.615,9.615,0,0,1-7.377-1.6A16.912,16.912,0,0,0,23.5,87.734a11.189,11.189,0,0,1-6.586-5.276,38.671,38.671,0,0,0-3.187-4.05l-4.066,2.4C14.762,89.833,28.7,97.744,36.3,95.991ZM62.584,50.227c.412,1.355.8,2.447,1.072,3.568.564,2.357.964,4.757,1.618,7.087a9.455,9.455,0,0,1-.049,5.67c-.469,1.441-.882,2.906-1.215,4.383-.45,2-.8,4.022-1.237,6.257l3.22,1.857c5.306-8.657,5.37-21.964,0-30.8l-3.413,1.976M8.671,48.3c-5.208,8.5-5.347,21.954.028,30.765l3.381-1.954c-.4-1.486-.793-2.784-1.105-4.1-.49-2.063-.807-4.175-1.422-6.2a10.023,10.023,0,0,1-.008-6.259c.533-1.63.9-3.317,1.283-4.991.392-1.706.717-3.428,1.118-5.372L8.671,48.3" transform="translate(-1.902 -20.179)" fill="#f20a67"/>
    <path id="Trazado_21" data-name="Trazado 21" d="M32.249,18.526q0,8.3,0,16.6c0,2.07-.528,2.369-2.345,1.321C20.321,30.93,10.754,25.383,1.155,19.891c-1.26-.721-1.5-1.359-.674-2.625C7.509,6.439,17.455.719,30.33.008c1.483-.082,1.955.446,1.938,1.913-.065,5.534-.026,11.07-.026,16.6ZM30.265,8.37c-1.188.28-2.168.464-3.12.744-2.521.744-5.069,1.422-7.526,2.341A13.821,13.821,0,0,0,15.751,13.7c-1.99,1.637-3.824,3.466-5.688,5.251-.771.738-1.454,1.57-2.291,2.483L30.265,34.4ZM6.017,20.4c.926-1.007,1.7-1.94,2.568-2.773,1.936-1.855,3.854-3.741,5.911-5.455a12.741,12.741,0,0,1,3.958-2.411c3.869-1.28,7.825-2.3,11.785-3.426V2.206C21.259,1,6,9.82,2.388,18.261c.157.111.313.239.486.339,1.053.609,2.11,1.211,3.143,1.8" transform="translate(0 0)" fill="#f20a67"/>
    <path id="Trazado_22" data-name="Trazado 22" d="M84.252,198.168a4.176,4.176,0,0,1-4.146-4.312,4.231,4.231,0,1,1,8.46.178,4.159,4.159,0,0,1-4.314,4.133m2.385-4.259a2.289,2.289,0,0,0-4.576.008,2.289,2.289,0,1,0,4.576-.008" transform="translate(-55.669 -131.824)" fill="#f20a67"/>
    <path id="Trazado_23" data-name="Trazado 23" d="M62.842,193.346l-1.97-1.654c.379-.316.8-.932,1.128-.888.806.109,2.007-.039,2.014,1.262,0,.346-.614.7-1.172,1.28" transform="translate(-42.303 -132.598)" fill="#f20a67"/>
    <path id="Trazado_24" data-name="Trazado 24" d="M102.05,162.868a16.892,16.892,0,0,1-2.468,1.571c-.2.084-.707-.559-1.073-.869A14.761,14.761,0,0,1,100.483,162c.194-.111.742.394,1.566.869" transform="translate(-68.458 -112.571)" fill="#f20a67"/>
    <path id="Trazado_25" data-name="Trazado 25" d="M95.685,178.043l-2.01-1.623c.367-.324.76-.944,1.095-.913.818.075,1.979-.025,2.03,1.237.014.34-.584.705-1.115,1.3" transform="translate(-65.1 -121.969)" fill="#f20a67"/>
    <path id="Trazado_26" data-name="Trazado 26" d="M77.331,179.171a19.566,19.566,0,0,1-2.606,1.424c-.178.066-.622-.589-.944-.911a16.564,16.564,0,0,1,2.083-1.517c.172-.093.69.456,1.467,1.005" transform="translate(-51.274 -123.81)" fill="#f20a67"/>
    <path id="Trazado_27" data-name="Trazado 27" d="M170.932,120.047a4.186,4.186,0,0,1,4.235,4.229,4.258,4.258,0,1,1-4.235-4.229m-2.277,4.265a2.229,2.229,0,0,0,2.356,2.23,2.3,2.3,0,0,0,2.224-2.244,2.359,2.359,0,0,0-2.315-2.33,2.28,2.28,0,0,0-2.265,2.344" transform="translate(-115.815 -83.427)" fill="#f20a67"/>
    <path id="Trazado_28" data-name="Trazado 28" d="M151.453,137.957l1.479-1.031a10.12,10.12,0,0,1,1.214,2c.086.248-.542.746-.844,1.13l-1.85-2.1" transform="translate(-105.253 -95.157)" fill="#f20a67"/>
    <path id="Trazado_29" data-name="Trazado 29" d="M168.461,149.661c-.831.574-1.342,1.118-1.529,1.023a16.012,16.012,0,0,1-2.1-1.472c.326-.314.754-.949.961-.884a18.852,18.852,0,0,1,2.672,1.333" transform="translate(-114.548 -103.078)" fill="#f20a67"/>
    <path id="Trazado_30" data-name="Trazado 30" d="M142.089,142.011c-.815.535-1.331,1.069-1.531.97a15.058,15.058,0,0,1-2.079-1.458c.321-.321.756-.972.942-.907a20.029,20.029,0,0,1,2.668,1.395" transform="translate(-96.236 -97.719)" fill="#f20a67"/>
    <path id="Trazado_31" data-name="Trazado 31" d="M184.082,155.312l-1.148-1.279a18.1,18.1,0,0,1,2-1.587c.121-.074.655.522,1,.808l-1.85,2.058" transform="translate(-127.131 -105.938)" fill="#f20a67"/>
    <path id="Trazado_32" data-name="Trazado 32" d="M185.222,167.244l-1.429,1.025a11.018,11.018,0,0,1-1.187-2.039c-.077-.219.58-.694.9-1.051l1.715,2.065" transform="translate(-126.898 -114.792)" fill="#f20a67"/>
    <path id="Trazado_33" data-name="Trazado 33" d="M42.021,150.92a4.3,4.3,0,0,1-4.337-4.182,4.355,4.355,0,0,1,4.211-4.334,4.287,4.287,0,0,1,4.3,4.207,4.229,4.229,0,0,1-4.177,4.309m-.092-6.511a2.207,2.207,0,0,0-2.234,2.343,2.293,2.293,0,0,0,2.228,2.231,2.38,2.38,0,0,0,2.349-2.3,2.311,2.311,0,0,0-2.343-2.272" transform="translate(-26.188 -98.964)" fill="#f20a67"/>
    <path id="Trazado_34" data-name="Trazado 34" d="M41.5,127.62a23.206,23.206,0,0,1,1.8,2.318c.068.112-.542.634-.839.967a18.081,18.081,0,0,1-1.839-1.8c-.095-.118.415-.721.879-1.486" transform="translate(-28.222 -88.69)" fill="#f20a67"/>
    <path id="Trazado_35" data-name="Trazado 35" d="M86.543,141.53a24.707,24.707,0,0,1-1.765-2.343c-.057-.1.831-.907.861-.881a11.344,11.344,0,0,1,1.82,1.805c.088.115-.438.7-.915,1.419" transform="translate(-58.915 -96.116)" fill="#f20a67"/>
    <path id="Trazado_36" data-name="Trazado 36" d="M43.792,114.051c-.778.465-1.389.971-1.5.876a18.321,18.321,0,0,1-1.787-1.869c.341-.288.871-.887.994-.813a22.013,22.013,0,0,1,2.3,1.806" transform="translate(-28.146 -78.001)" fill="#f20a67"/>
    <path id="Trazado_37" data-name="Trazado 37" d="M57.386,126.652c-.441-.794-.925-1.4-.821-1.525a17.848,17.848,0,0,1,1.861-1.786c.288.349.889.892.812,1.016a22.057,22.057,0,0,1-1.852,2.3" transform="translate(-39.3 -85.716)" fill="#f20a67"/>
    <path id="Trazado_38" data-name="Trazado 38" d="M70.832,136.994c-.642.668-1.018,1.4-1.428,1.42-1.1.053-1.083-.934-.933-1.652a4.97,4.97,0,0,1,.913-1.454l1.447,1.687" transform="translate(-47.534 -94.032)" fill="#f20a67"/>
    <path id="Trazado_39" data-name="Trazado 39" d="M137.169,171.161a4.181,4.181,0,0,1,4.151,4.312,4.28,4.28,0,0,1-4.308,4.194,4.354,4.354,0,0,1-4.193-4.351,4.278,4.278,0,0,1,4.349-4.156m2.233,4.3a2.388,2.388,0,0,0-2.269-2.386,2.315,2.315,0,0,0-2.3,2.164,2.211,2.211,0,0,0,2.155,2.414,2.293,2.293,0,0,0,2.416-2.191" transform="translate(-92.303 -118.949)" fill="#f20a67"/>
    <path id="Trazado_40" data-name="Trazado 40" d="M124.793,216.614l1.643-2.031c.329.367,1,.863.925,1.078a12.073,12.073,0,0,1-1.266,2.118l-1.3-1.165" transform="translate(-86.725 -149.125)" fill="#f20a67"/>
    <path id="Trazado_41" data-name="Trazado 41" d="M171.408,186.733l-1.651,2.011c-.324-.369-.992-.869-.911-1.084a11.924,11.924,0,0,1,1.275-2.1l1.286,1.172" transform="translate(-117.336 -128.956)" fill="#f20a67"/>
    <path id="Trazado_42" data-name="Trazado 42" d="M131.51,198.544l2.012,1.73c-.373.311-.861.953-1.1.871a10.33,10.33,0,0,1-2-1.2l1.087-1.4" transform="translate(-90.638 -137.979)" fill="#f20a67"/>
    <path id="Trazado_43" data-name="Trazado 43" d="M155.085,200.58l1.849,1.806c-.417.274-.956.865-1.226.761a9.633,9.633,0,0,1-1.939-1.31l1.316-1.257" transform="translate(-106.862 -139.394)" fill="#f20a67"/>
    <path id="Trazado_44" data-name="Trazado 44" d="M125.113,165.184l1.836-1.851c.256.465.737.941.717,1.393-.034.75-.112,1.788-1.265,1.676-.371-.036-.688-.627-1.288-1.218" transform="translate(-86.948 -113.509)" fill="#f20a67"/>
    <path id="Trazado_45" data-name="Trazado 45" d="M132.294,89.066a4.161,4.161,0,0,1-4.323,4.129,4.264,4.264,0,0,1-4.177-4.315,4.315,4.315,0,0,1,4.363-4.16,4.229,4.229,0,0,1,4.137,4.346m-4.23,2.211a2.354,2.354,0,0,0,2.316-2.331A2.309,2.309,0,0,0,128,86.7a2.229,2.229,0,0,0-2.2,2.23,2.279,2.279,0,0,0,2.263,2.345" transform="translate(-86.03 -58.876)" fill="#f20a67"/>
    <path id="Trazado_46" data-name="Trazado 46" d="M128,119.207l-1.131-1.439a13.776,13.776,0,0,1,2.162-1.225c.207-.077.671.539,1.017.837L128,119.207" transform="translate(-88.166 -80.987)" fill="#f20a67"/>
    <path id="Trazado_47" data-name="Trazado 47" d="M154.123,83.185l-1.141-1.307a12,12,0,0,1,2.1-1.276c.212-.081.711.594,1.078.922l-2.034,1.661" transform="translate(-106.315 -56.01)" fill="#f20a67"/>
    <path id="Trazado_48" data-name="Trazado 48" d="M158.2,99.808l-1.362,1.182a10.137,10.137,0,0,1-1.211-2.008c-.088-.256.532-.754.828-1.142l1.745,1.968" transform="translate(-108.148 -67.994)" fill="#f20a67"/>
    <path id="Trazado_49" data-name="Trazado 49" d="M172.833,94.05l-1.23-1.323a9.983,9.983,0,0,1,1.962-1.259c.254-.095.768.51,1.163.8l-1.9,1.786" transform="translate(-119.256 -63.559)" fill="#f20a67"/>
    <path id="Trazado_50" data-name="Trazado 50" d="M135.247,71.226l-1.44,1.023A10.751,10.751,0,0,1,132.66,70.2c-.074-.229.585-.695.908-1.052l1.679,2.082" transform="translate(-92.189 -48.052)" fill="#f20a67"/>
    <path id="Trazado_51" data-name="Trazado 51" d="M64.678,62.588a4.118,4.118,0,0,1-4.1-4.211A4.193,4.193,0,0,1,64.7,54.316a4.117,4.117,0,0,1,4.145,4.163,4.058,4.058,0,0,1-4.171,4.109m2.258-4.18A2.237,2.237,0,0,0,64.591,56.3a2.183,2.183,0,0,0-2.04,2.245,2.226,2.226,0,0,0,2.178,2.128,2.262,2.262,0,0,0,2.208-2.266" transform="translate(-42.099 -37.747)" fill="#f20a67"/>
    <path id="Trazado_52" data-name="Trazado 52" d="M87.132,90.3c-.766.558-1.295,1.132-1.47,1.039A15.527,15.527,0,0,1,83.6,89.834c.321-.322.759-.973.944-.908A19.047,19.047,0,0,1,87.132,90.3" transform="translate(-58.095 -61.797)" fill="#f20a67"/>
    <path id="Trazado_53" data-name="Trazado 53" d="M88.254,44.241l-1.446,1A10.888,10.888,0,0,1,85.68,43.19c-.07-.22.6-.676.927-1.023l1.647,2.074" transform="translate(-59.54 -29.304)" fill="#f20a67"/>
    <path id="Trazado_54" data-name="Trazado 54" d="M47.084,70.071c-.757.55-1.277,1.118-1.456,1.026a15.409,15.409,0,0,1-2.069-1.48c.315-.329.75-.992.925-.929a19.583,19.583,0,0,1,2.6,1.384" transform="translate(-30.271 -47.732)" fill="#f20a67"/>
  </g>
</svg>
