<svg id="Grupo_57" data-name="Grupo 57" xmlns="http://www.w3.org/2000/svg" xmlns:xlink="http://www.w3.org/1999/xlink" width="77.253" height="58.639" viewBox="0 0 77.253 58.639">
  <defs>
    <clipPath id="clip-path">
      <rect id="Rectángulo_36" data-name="Rectángulo 36" width="77.254" height="58.639" fill="#f20a67"/>
    </clipPath>
  </defs>
  <g id="Grupo_27" data-name="Grupo 27" clip-path="url(#clip-path)">
    <path id="Trazado_76" data-name="Trazado 76" d="M46.261,8.354c2.671.555,5.269.9,7.746,1.643a30.05,30.05,0,0,1,21.34,28.6c.031,4.115-.021,8.231.04,12.345a2.537,2.537,0,0,0,.742,1.575,4.45,4.45,0,0,1,.9,4.331,2.761,2.761,0,0,1-2.985,1.794c-3.111-.017-6.223,0-9.334-.008-.824,0-1.747,0-1.716-1.16.031-1.135.941-1.1,1.769-1.1,3.3,0,6.6,0,9.864,0,.5-1.994.432-2.09-1.466-2.09q-26.573,0-53.145-.011c-.934,0-2.339.384-2.327-1.113.011-1.482,1.418-1.1,2.351-1.1,4.312-.038,4.312-.022,4.312-4.357,0-1.405.028-2.811-.01-4.215-.044-1.615-.6-2.178-2.2-2.187q-5.42-.032-10.84,0c-1.619.008-2.189.569-2.206,2.152q-.036,3.161,0,6.323c.015,1.679.564,2.216,2.278,2.266a16.782,16.782,0,0,1,2.7.06c.506.1.922.663,1.378,1.017-.473.39-.937,1.1-1.42,1.117-3.56.1-7.125.053-10.688.058-.243,0-.486.033-.888.061-.031.625-.059,1.193-.1,2.026H57.793c.351,0,.7,0,1.054,0,.872-.013,1.9-.076,1.9,1.128s-1.041,1.139-1.905,1.139q-27.777,0-55.554.005c-1.358,0-2.5-.328-3.033-1.721a4.421,4.421,0,0,1,.929-4.447,2.52,2.52,0,0,0,.689-1.6c.057-4.064-.04-8.131.046-12.195.227-10.765,4.881-19.145,13.77-25.189a3.213,3.213,0,0,1,1.307-.7,1.58,1.58,0,0,1,1.222.547,1.306,1.306,0,0,1-.141,1.188,4.584,4.584,0,0,1-1.2.882C9.039,20.776,4.657,28.151,4.252,37.681c-.2,4.7-.035,9.419-.035,14.241H6.776c0-2.575,0-5.072,0-7.569,0-3.859,1.125-5.092,5.093-5.481-.067-2.553.868-4.521,3.422-5.513.263-.1.367-.761.441-1.18.4-2.275,1.127-4.451,2.94-5.94a11.043,11.043,0,0,1,3.591-1.666c.319-.1,1.066.462,1.272.887.12.247-.389,1.151-.709,1.206-3.731.639-4.305,3.566-5,6.563a5.154,5.154,0,0,1,3.67,5.635c.681.084,1.277.115,1.853.237a3.885,3.885,0,0,1,3.232,3.808c.052,3,.014,5.992.014,9.057h2.118c0-2.441,0-4.825,0-7.21,0-4.313.842-5.312,5.083-5.937-.057-2.437.817-4.337,3.215-5.38.357-.155.582-.862.668-1.349a9.432,9.432,0,0,1,2.982-5.919A9.168,9.168,0,0,1,43.975,24.6c.407-.116,1.047.582,1.581.908-.387.433-.7,1.121-1.172,1.257-2.45.7-4.679,3.573-4.509,6.046a.911.911,0,0,0,.41.668c2.338,1,3.235,2.854,3.151,5.378.519.056,1,.089,1.484.163A4,4,0,0,1,48.522,43c.064,2.947.016,5.9.016,8.94H50.67c0-3.135-.076-6.187.025-9.233.077-2.322,1.752-3.536,4.453-3.772.8-1.643,1.139-3.638,2.279-4.357,1.777-1.123,2.121-2.6,2.642-4.3.84-2.748,2.371-4.988,5.437-5.675.844-.189,1.729-.2,1.945.826.228,1.084-.632,1.261-1.485,1.428-2.1.41-4.454,3.835-4.145,6.012a.955.955,0,0,0,.465.638c2.313,1.035,3.172,2.907,3.068,5.38.556.05,1.052.065,1.538.143a3.99,3.99,0,0,1,3.558,4.025c.077,2.9.019,5.8.019,8.842h2.517c.026-.5.073-.99.074-1.475.006-3.764.024-7.528,0-11.292C72.952,23.119,60.831,11,44.809,10.88c-4.165-.03-8.331.013-12.5-.008a28.321,28.321,0,0,0-10.152,1.843c-.789.3-1.736.818-2.187-.326-.487-1.235.59-1.592,1.454-1.788,3.115-.7,6.248-1.33,9.378-1.972.43-.088.875-.1,1.451-.161-.185-2.724.2-5.324,2.544-6.894A9.179,9.179,0,0,1,39.356.005c4.192-.134,6.383,2.693,6.9,8.349M60.706,41.283c-1.9,0-3.809.012-5.714,0-1.273-.011-2.037.589-2.066,1.859-.053,2.354-.045,4.711,0,7.066a1.7,1.7,0,0,0,1.822,1.8c3.859.036,7.718.041,11.577,0a1.718,1.718,0,0,0,1.833-1.931q0-3.383,0-6.767a1.792,1.792,0,0,0-2.042-2.021q-2.706,0-5.413,0m-22.044,0c-1.854,0-3.708.009-5.561,0-1.345-.008-2.073.615-2.079,1.984-.009,2.255,0,4.509,0,6.764a1.766,1.766,0,0,0,1.937,1.988q5.636.05,11.272.005a1.815,1.815,0,0,0,2.013-2.072c-.017-2.2.023-4.409-.014-6.613-.025-1.487-.612-2.027-2.152-2.048-1.8-.025-3.607-.006-5.411,0M43.749,8.476c.477-2.521-.241-4.459-2.016-5.569a4.7,4.7,0,0,0-5.224.123A4.9,4.9,0,0,0,34.7,8.476ZM18.931,38.964c.506-1.2.321-2.26-.6-2.8a3.468,3.468,0,0,0-2.6-.385c-.659.244-1.158,1.241-1.467,2.01-.279.694.087,1.222,1,1.183,1.193-.05,2.39-.012,3.666-.012m39.4,0c1.219,0,2.463-.028,3.7.01.818.025,1.206-.437.955-1.087-.3-.778-.752-1.836-1.388-2.059a3.676,3.676,0,0,0-2.727.383c-.912.529-1.081,1.61-.545,2.753m-22.029-.107h4.653c.32-1.284.141-2.431-1-2.909a3.784,3.784,0,0,0-2.639-.014c-1.142.468-1.367,1.607-1.012,2.923" transform="translate(0 -0.001)" fill="#f20a67"/>
    <path id="Trazado_77" data-name="Trazado 77" d="M83.776,45.107c6.364.2,11.37.432,16.158,2.125a13.818,13.818,0,0,1,3.179,1.639c.323.222.26,1.007.373,1.535-.531.09-1.22.442-1.569.231-3.882-2.35-8.24-2.749-12.578-3.019A51.162,51.162,0,0,0,72.487,48.9c-1.332.366-2.549,1.139-3.868,1.575-.546.181-1.487.21-1.786-.116-.679-.738-.078-1.5.651-1.774a43.245,43.245,0,0,1,7.19-2.449c3.428-.649,6.949-.806,9.1-1.033" transform="translate(-46.505 -31.527)" fill="#f20a67"/>
    <path id="Trazado_78" data-name="Trazado 78" d="M57.846,151.239c-.531-.817-1.077-1.286-1.035-1.694.045-.435.645-.813,1-1.215.4.414,1.019.782,1.116,1.257.073.357-.528.852-1.085,1.653" transform="translate(-39.707 -103.674)" fill="#f20a67"/>
    <path id="Trazado_79" data-name="Trazado 79" d="M38.268,143.888c-.285-.443-.829-.915-.785-1.322.048-.439.647-.817,1.006-1.222.371.39.977.743,1.043,1.179.062.407-.451.9-.711,1.355l-.552.01" transform="translate(-26.197 -98.791)" fill="#f20a67"/>
    <path id="Trazado_80" data-name="Trazado 80" d="M66.932,159.776c-.782.558-1.244,1.141-1.63,1.094a1.506,1.506,0,0,1-1.023-1.088,1.534,1.534,0,0,1,1.017-1.122c.385-.05.853.548,1.636,1.116" transform="translate(-44.927 -110.892)" fill="#f20a67"/>
    <path id="Trazado_81" data-name="Trazado 81" d="M212.424,159.666c-.692.58-1.1,1.192-1.5,1.183-.418-.01-1.192-.669-1.15-.942a1.845,1.845,0,0,1,1.037-1.267c.309-.1.855.517,1.612,1.027" transform="translate(-146.62 -110.872)" fill="#f20a67"/>
    <path id="Trazado_82" data-name="Trazado 82" d="M205.209,149.656c-.767.573-1.226,1.174-1.6,1.125a1.113,1.113,0,0,1-.029-2.219c.37-.06.847.536,1.628,1.094" transform="translate(-141.58 -103.834)" fill="#f20a67"/>
    <path id="Trazado_83" data-name="Trazado 83" d="M138.007,146.425c-.558-.807-1.115-1.258-1.079-1.657.04-.441.62-.834.965-1.248.407.4,1.032.747,1.148,1.219.085.348-.5.858-1.034,1.686" transform="translate(-95.703 -100.312)" fill="#f20a67"/>
    <path id="Trazado_84" data-name="Trazado 84" d="M111.319,139.358c.565.873,1.108,1.34,1.07,1.755-.039.431-.639.811-.994,1.213-.372-.383-.988-.732-1.047-1.158s.456-.909.971-1.81" transform="translate(-77.124 -97.403)" fill="#f20a67"/>
  </g>
</svg>
