<svg xmlns="http://www.w3.org/2000/svg" xmlns:xlink="http://www.w3.org/1999/xlink" width="65.598" height="73.014" viewBox="0 0 65.598 73.014">
  <defs>
    <clipPath id="clip-path">
      <rect id="Rectángulo_11" data-name="Rectángulo 11" width="65.598" height="73.014" transform="translate(0 0)" fill="#f20a67"/>
    </clipPath>
  </defs>
  <g id="Grupo_55" data-name="Grupo 55" transform="translate(0 0)">
    <g id="Grupo_9" data-name="Grupo 9" clip-path="url(#clip-path)">
      <path id="Trazado_10" data-name="Trazado 10" d="M3.161,42.408c2.547,11.666,14.024,23.25,29.694,23.215S59.884,53.976,62.325,42.76C51.164,51.694,38.12,52.781,24.509,51.345A44.511,44.511,0,0,1,18.9,50.338c-.89-.212-2.5-.062-2.093-1.652.383-1.5,1.67-.608,2.529-.419a57.836,57.836,0,0,0,31.23-1.289,25.581,25.581,0,0,0,9.291-5.143c4.734-4.28,4.742-9.334.031-13.641a26.053,26.053,0,0,0-8.338-4.833c-.354-.138-.827-.183-1.031-.44a1.845,1.845,0,0,1-.464-1.3c.059-.275.709-.439,1.112-.614.106-.046.28.033.412.082a27.728,27.728,0,0,1,10.558,6.3,11.286,11.286,0,0,1,3.426,9.031c-.787,11.353-5.9,20.169-15.437,26.38A2.478,2.478,0,0,0,48.754,65a6.333,6.333,0,0,1-4.092,5.7,28.429,28.429,0,0,1-14.937,2.1,43.2,43.2,0,0,1-8.548-2.03c-2.825-.942-4.247-3.177-4.47-6.193a2.264,2.264,0,0,0-.938-1.5A32.831,32.831,0,0,1,.389,40.1C-.927,32.554,1,28.144,7.556,24.129A42.732,42.732,0,0,1,25.21,18.518a61.947,61.947,0,0,1,20.01.794c.186.038.374.067.559.112.762.187,1.587.38,1.342,1.438-.226.977-1.038.843-1.74.689a58.905,58.905,0,0,0-18.15-1.087c-5.863.544-11.6,1.692-16.8,4.564a24.853,24.853,0,0,0-5.979,4.514c-3.2,3.383-3.053,7.512.02,11.044a21.62,21.62,0,0,0,7.563,5.232c.3.139.614.256.921.382.736.3,1.366.819.874,1.59a1.789,1.789,0,0,1-1.647.368A25,25,0,0,1,3.96,43.151l-.8-.743M46.65,64.774A34.311,34.311,0,0,1,32.842,67.8a34.247,34.247,0,0,1-13.919-3.024,4.416,4.416,0,0,0,2.771,3.914,29.145,29.145,0,0,0,22.2,0,4.444,4.444,0,0,0,2.755-3.911" fill="#f20a67"/>
      <path id="Trazado_11" data-name="Trazado 11" d="M58.322,37.011c1.068-1.459,1.065-2.927-.013-4.041a22.805,22.805,0,0,0-4.679-3.859,33.614,33.614,0,0,0-12.421-3.93,52.141,52.141,0,0,0-25.985,2.366q-.466.174-.928.364c-.745.308-1.607.825-2.08-.24-.522-1.176.54-1.472,1.314-1.75A53.829,53.829,0,0,1,19.2,24.055c10.8-2.564,21.513-2.4,31.962,1.574a26.628,26.628,0,0,1,7.1,4.114c4.048,3.255,3.949,7.184,0,10.592-3.777,3.258-8.338,4.879-13.117,5.906-10.4,2.235-20.71,1.961-30.716-1.866a25.551,25.551,0,0,1-7.3-4.3c-4.582-3.9-3.14-7.888.952-10.992.317-.241,1,0,1.506.01-.069.54.038,1.208-.243,1.593-.635.873-1.55,1.542-2.191,2.411A2.976,2.976,0,0,0,7.2,36.943c4.279-5.675,10.466-7.694,17.019-8.874a45.739,45.739,0,0,1,24.83,2.114,18.463,18.463,0,0,1,9.271,6.828M56.879,38.55a17.2,17.2,0,0,0-2.843-3.056,33.587,33.587,0,0,0-6.591-3.58,43.4,43.4,0,0,0-22.186-1.86c-4.878.759-9.566,2.131-13.521,5.247a29.858,29.858,0,0,0-3.07,3.238c10.262,9.153,38.145,9.081,48.211.011" fill="#f20a67"/>
      <path id="Trazado_12" data-name="Trazado 12" d="M30.967,11.785a15.644,15.644,0,0,1,.843-2.218,2.4,2.4,0,0,0,.036-2.67A4.152,4.152,0,0,1,31.858,2.2c.259-.428.221-1.045.5-1.447.256-.365.805-.809,1.146-.752a1.383,1.383,0,0,1,.874,1.045,5.074,5.074,0,0,1-.625,2.14,2.411,2.411,0,0,0-.039,2.671,4.456,4.456,0,0,1,.038,4.712,4.653,4.653,0,0,0,0,2.505c.1.684.621,1.332.619,1.995,0,.457-.576.913-.894,1.369-.4-.33-.965-.58-1.159-1-.523-1.144-.887-2.362-1.352-3.654" fill="#f20a67"/>
      <path id="Trazado_13" data-name="Trazado 13" d="M42.518,8.182a14.644,14.644,0,0,1-.821,2.2,2.667,2.667,0,0,0-.015,2.809,5.836,5.836,0,0,1,.592,2.281c.019.3-.511.862-.847.91a1.374,1.374,0,0,1-1.091-.64,7.611,7.611,0,0,1-.989-2.61,6.6,6.6,0,0,1,.28-3.261,3.136,3.136,0,0,0-.009-3.311,4.265,4.265,0,0,1-.495-2.021,1.2,1.2,0,0,1,.718-.89,1.2,1.2,0,0,1,1.089.336c.6,1.369,1.071,2.792,1.588,4.2" fill="#f20a67"/>
      <path id="Trazado_14" data-name="Trazado 14" d="M22.921,11.854a7.953,7.953,0,0,1,.657-1.989,2.739,2.739,0,0,0-.033-3.414,2.57,2.57,0,0,1-.417-1.609c.056-.449.533-.846.825-1.265a4.666,4.666,0,0,1,1.186.916,12.565,12.565,0,0,1,.77,1.807,3.934,3.934,0,0,1-.062,3.822,2.854,2.854,0,0,0-.036,3.3,4.475,4.475,0,0,1,.433,2.168c0,.278-.475.7-.809.8a1.054,1.054,0,0,1-.949-.4c-.583-1.37-1.064-2.783-1.565-4.142" fill="#f20a67"/>
      <path id="Trazado_15" data-name="Trazado 15" d="M30.693,34.063c.259-.274.394-.543.585-.591.451-.115,1.2-.326,1.34-.136a1.63,1.63,0,0,1,.221,1.455,22.479,22.479,0,0,1-2.946,4.038A7.333,7.333,0,0,1,26.724,40.6a16.131,16.131,0,0,1-8.993-.205,7.506,7.506,0,0,1-1.789-.856,2.778,2.778,0,0,1-1.463-2.729,2.588,2.588,0,0,1,1.883-2.446c3.2-.827,6.428-1.6,9.682-2.192a4.767,4.767,0,0,1,4.649,1.894m-8.216,5.118c1.589-.293,2.919-.436,4.186-.8,1.6-.457,2.531-1.639,2.328-2.666-.2-1.011-1.575-1.738-3.22-1.424-2.7.514-5.375,1.171-8.041,1.843-.422.106-.744.61-1.112.931.324.321.6.823.982.932,1.676.472,3.384.83,4.877,1.182" fill="#f20a67"/>
      <path id="Trazado_16" data-name="Trazado 16" d="M39.666,37.817c-2.156-.019-3.918-1.352-3.917-2.965S37.508,31.91,39.67,31.9c2.243-.013,4.018,1.342,3.968,3.029-.048,1.618-1.824,2.91-3.972,2.891m1.8-2.959a2.35,2.35,0,0,0-3.5-.006c1.107,1.038,2.208,1.062,3.5.006" fill="#f20a67"/>
      <path id="Trazado_17" data-name="Trazado 17" d="M48.821,40.509c-2.279.012-4.058-1.318-4-2.989.057-1.621,1.791-2.854,4-2.843s3.921,1.279,3.919,2.916-1.705,2.9-3.92,2.916m1.733-2.921c-1.367-1.1-2.347-1.078-3.465.009,1.138,1.085,2.117,1.1,3.465-.009" fill="#f20a67"/>
      <path id="Trazado_18" data-name="Trazado 18" d="M35.017,38.085c.63.058.965.06,1.289.124,1.713.337,2.872,1.521,2.848,2.888a3.007,3.007,0,0,1-2.943,2.755,7.906,7.906,0,0,1-3.05-.334,2.482,2.482,0,0,1-1.843-2.444,2.67,2.67,0,0,1,1.922-2.553,9.873,9.873,0,0,1,1.777-.436m2.06,3.051c-1.391-1.21-2.637-1.159-3.6.106a2.764,2.764,0,0,0,3.6-.106" fill="#f20a67"/>
    </g>
  </g>
</svg>
