<?xml version="1.0" encoding="utf-8"?>
<!-- Generator: Adobe Illustrator 24.0.0, SVG Export Plug-In . SVG Version: 6.00 Build 0)  -->
<svg version="1.1" id="Capa_1" xmlns="http://www.w3.org/2000/svg" xmlns:xlink="http://www.w3.org/1999/xlink" x="0px" y="0px"
	 viewBox="0 0 82.2 73.6" style="enable-background:new 0 0 82.2 73.6;" xml:space="preserve">
<style type="text/css">
	.st0{fill:#FFFFFF;}
</style>
<path class="st0" d="M49.1,62.6c-3.3,1.1-6.6,0.6-9.9-0.4c-4.8-1.5-9.3-3.7-13.8-6.1c-4.1-2.1-8.2-4.2-12.6-5.6
	c-1.7-0.5-3.4-0.9-5.2-0.9c-1.9-0.1-3.4,0.6-4.5,2.3c-0.8-0.7-1.3-1.6-1.4-2.6c-0.4-3.1,2.2-6.5,6.1-6.6c1.9,0,3.8,0.4,5.6,0.9
	c4.8,1.4,9.3,3.4,13.9,5.3c4.3,1.8,8.7,3.5,13.2,4.5c2.7,0.6,5.4,0.8,8.1,0.2c1.1-0.2,2.1-0.6,2.9-1.4c0.2-0.2,0.3-0.4,0.4-0.6
	c1.6-3.1,3.5-6,6-8.6c0.6-0.6,1.3-1.2,2-1.8c0.2-0.1,0.4-0.2,0.6-0.3c0.3-0.1,0.7-0.3,0.9,0c0.3,0.3,0.4,0.7,0.1,1.1
	c-0.5,0.9-1,1.9-1.5,2.9c-1.1,2.2-2.1,4.4-2.7,6.7c0,0.1,0,0.2-0.1,0.3c1-0.1,1.8-0.4,2.6-0.9c1.5-0.9,2.7-2,3.8-3.3
	c3.4-4,5.8-8.5,7.1-13.6c0.3-1.2,0.5-2.5,0.2-3.8c-0.3-1.3-1-1.7-2.3-1.6c-2.9,0.2-5.3,1.6-7.5,3.2c-5.6,4.2-9.7,9.5-12.5,15.9
	c-0.5,1.2-0.9,2.5-0.9,3.9c0,0.5-0.4,0.6-0.8,0.6c-1.7,0.1-3.2-0.6-4.2-2c-1.5-2.1-1.6-4.4-0.9-6.8c0.7-2.4,2.2-4.5,3.8-6.4
	c4.6-5.3,10.2-9.2,17-11.3c2.7-0.9,5.4-1.2,8.2-1c2,0.1,3.9,0.7,5.4,2.1c1.2,1.2,1.9,2.7,2.2,4.3c0.8,4.2-0.6,8-2.9,11.4
	c-3.5,5.3-8.3,9.1-14.2,11.5c-2.3,0.9-4.7,1.3-7.2,1.1c-0.4,0-0.8-0.1-1.2-0.1c0.9,0.7,2.1,0.8,3.2,1c-0.1,1.4-0.2,2.8-0.2,4.2
	c0,2.1,0.1,4.1,0.7,6.1c0.2,0.7,0.6,1.4,0.9,2.1c0.2,0.6,0.2,0.7-0.4,0.9c-1.4,0.5-2.9,0.7-4.4,0.1c-2-0.8-3-2.4-3.5-4.4
	C49.4,64.5,49.3,63.5,49.1,62.6z"/>
<path class="st0" d="M12,42.2c2.9-3.3,4.7-7.1,6.6-10.8c2.5-4.8,4.9-9.7,7.4-14.5c1.8-3.3,3.8-6.4,6.4-9.1c2.2-2.3,4.6-4.1,7.7-5
	c2.3-0.7,4.6-0.8,6.9,0.2c3,1.3,5,3.6,5.8,6.9c0.4,1.9,0,3.8-1,5.6c-0.5-0.5-1-1-1.5-1.4c-3.2-2.4-7.4-2.5-10.8-0.2
	c-2.6,1.7-4.6,4-6.4,6.6c-2.4,3.4-4.4,7.2-6.4,10.9c-2,3.6-3.8,7.3-6.2,10.7c-0.4,0.5-0.7,1-1.1,1.5c-0.1,0.1-0.3,0.2-0.4,0.2
	C16.7,42.9,14.4,42.5,12,42.2z"/>
</svg>
